<?xml version="1.0" encoding="utf-8"?>
<!-- Generator: Adobe Illustrator 16.0.0, SVG Export Plug-In . SVG Version: 6.00 Build 0)  -->
<!DOCTYPE svg PUBLIC "-//W3C//DTD SVG 1.1//EN" "http://www.w3.org/Graphics/SVG/1.1/DTD/svg11.dtd">
<svg version="1.1" id="圖層_1" xmlns="http://www.w3.org/2000/svg" xmlns:xlink="http://www.w3.org/1999/xlink" x="0px" y="0px"
	 width="30.002px" height="30px" viewBox="0 0 30.002 30" enable-background="new 0 0 30.002 30" xml:space="preserve">
<g>
	<g>
		<path fill="#FFFFFF" d="M29.268,10.364c2.007,6.181-0.192,12.951-5.449,16.771c-5.258,3.82-12.377,3.82-17.634,0
			c-5.258-3.819-7.458-10.59-5.449-16.771C2.744,4.184,8.503,0,15.001,0S27.26,4.184,29.268,10.364z M15.001,1.352
			c-5.913,0-11.153,3.807-12.98,9.431c-1.827,5.623,0.175,11.784,4.958,15.259c4.784,3.477,11.262,3.477,16.045,0
			c4.785-3.475,6.786-9.636,4.958-15.259C26.156,5.159,20.915,1.352,15.001,1.352z"/>
	</g>
	<g>
		<path fill="#FFFFFF" d="M13.587,6.847h-0.924l-0.625,2.399l-0.647-2.399h-0.964c0.192,0.566,0.394,1.135,0.586,1.702
			c0.294,0.852,0.477,1.495,0.56,1.933v2.474h0.914v-2.474L13.587,6.847z M16.033,11.481V9.887c0-0.487-0.084-0.842-0.258-1.072
			c-0.228-0.311-0.548-0.467-0.961-0.467c-0.411,0-0.732,0.156-0.961,0.467c-0.175,0.229-0.258,0.585-0.258,1.072v1.594
			c0,0.484,0.083,0.843,0.258,1.071c0.229,0.309,0.55,0.465,0.961,0.465c0.413,0,0.733-0.156,0.961-0.465
			C15.949,12.324,16.033,11.966,16.033,11.481z M15.207,11.638c0,0.42-0.126,0.63-0.393,0.63s-0.395-0.209-0.395-0.63V9.722
			c0-0.422,0.128-0.632,0.395-0.632s0.393,0.21,0.393,0.632V11.638z M19.082,12.955V8.404h-0.824v3.478
			c-0.182,0.259-0.356,0.386-0.521,0.386c-0.111,0-0.175-0.064-0.192-0.192c-0.011-0.027-0.011-0.127-0.011-0.321v-3.35h-0.821v3.6
			c0,0.321,0.026,0.539,0.072,0.677c0.082,0.229,0.267,0.337,0.531,0.337c0.301,0,0.614-0.183,0.942-0.559v0.496H19.082z"/>
		<g>
			<path fill="#FFFFFF" d="M16.497,17.542c-0.134,0-0.271,0.064-0.407,0.198v2.747c0.137,0.135,0.273,0.2,0.407,0.2
				c0.235,0,0.354-0.2,0.354-0.607v-1.922C16.851,17.751,16.732,17.542,16.497,17.542z"/>
			<path fill="#FFFFFF" d="M19.526,17.542c-0.273,0-0.41,0.209-0.41,0.626v0.416h0.816v-0.416
				C19.932,17.751,19.795,17.542,19.526,17.542z"/>
			<path fill="#FFFFFF" d="M21.519,15.253c-0.164-0.718-0.751-1.248-1.458-1.327c-1.675-0.188-3.371-0.188-5.058-0.188
				c-1.688,0-3.382,0-5.056,0.188c-0.709,0.079-1.296,0.609-1.461,1.327c-0.235,1.024-0.237,2.139-0.237,3.192
				c0,1.053,0,2.169,0.235,3.192c0.165,0.718,0.752,1.247,1.459,1.328c1.675,0.186,3.37,0.187,5.058,0.186
				c1.688,0.001,3.382,0,5.057-0.186c0.707-0.081,1.294-0.61,1.46-1.328c0.236-1.023,0.236-2.14,0.236-3.192
				C21.754,17.392,21.754,16.277,21.519,15.253z M12.101,16.174h-0.979v5.193h-0.907v-5.193h-0.96v-0.853h2.846V16.174z
				 M14.568,21.367H13.75v-0.492c-0.324,0.373-0.632,0.554-0.934,0.554c-0.262,0-0.443-0.107-0.524-0.335
				c-0.046-0.137-0.072-0.352-0.072-0.67v-3.562h0.815v3.317c0,0.191,0,0.291,0.008,0.317c0.02,0.126,0.081,0.191,0.19,0.191
				c0.163,0,0.336-0.126,0.517-0.381v-3.444h0.817V21.367z M17.667,20.015c0,0.417-0.026,0.718-0.081,0.908
				c-0.109,0.335-0.327,0.506-0.653,0.506c-0.29,0-0.569-0.161-0.843-0.499v0.437h-0.816v-6.046h0.816v1.975
				c0.265-0.323,0.544-0.488,0.843-0.488c0.326,0,0.544,0.171,0.653,0.508c0.055,0.182,0.081,0.48,0.081,0.904V20.015z
				 M20.75,19.264h-1.634v0.798c0,0.419,0.137,0.625,0.417,0.625c0.2,0,0.318-0.11,0.364-0.328c0.008-0.044,0.017-0.225,0.017-0.553
				h0.836v0.12c0,0.262-0.011,0.443-0.021,0.525c-0.025,0.18-0.091,0.344-0.189,0.489c-0.226,0.327-0.56,0.488-0.987,0.488
				s-0.752-0.155-0.987-0.461c-0.172-0.226-0.263-0.582-0.263-1.059v-1.578c0-0.481,0.078-0.833,0.253-1.062
				c0.235-0.307,0.561-0.461,0.978-0.461c0.408,0,0.733,0.154,0.962,0.461c0.169,0.229,0.255,0.581,0.255,1.062V19.264z"/>
		</g>
	</g>
</g>
</svg>
