<?xml version="1.0" encoding="utf-8"?>
<!-- Generator: Adobe Illustrator 16.0.0, SVG Export Plug-In . SVG Version: 6.00 Build 0)  -->
<!DOCTYPE svg PUBLIC "-//W3C//DTD SVG 1.1//EN" "http://www.w3.org/Graphics/SVG/1.1/DTD/svg11.dtd">
<svg version="1.1" id="圖層_1" xmlns="http://www.w3.org/2000/svg" xmlns:xlink="http://www.w3.org/1999/xlink" x="0px" y="0px"
	 width="29.999px" height="30px" viewBox="0 0 29.999 30" enable-background="new 0 0 29.999 30" xml:space="preserve">
<path fill="#FFFFFF" d="M8.785,28.641c-0.248-0.113-0.494-0.228-0.733-0.354C8.293,28.414,8.538,28.528,8.785,28.641z"/>
<path fill="#FFFFFF" d="M23.12,27.6c-0.221,0.143-0.446,0.279-0.676,0.41C22.673,27.88,22.897,27.744,23.12,27.6z"/>
<path fill="#FFFFFF" d="M27.317,23.547c-0.186,0.268-0.383,0.528-0.586,0.784C26.936,24.074,27.132,23.814,27.317,23.547z"/>
<path fill="#FFFFFF" d="M28.646,21.202c-0.116,0.255-0.235,0.51-0.365,0.757C28.41,21.711,28.529,21.458,28.646,21.202z"/>
<path fill="#FFFFFF" d="M27.565,6.825c0.156,0.239,0.303,0.485,0.445,0.733C27.868,7.309,27.721,7.064,27.565,6.825z"/>
<path fill="#FFFFFF" d="M6.183,27.136c0.076,0.055,0.156,0.102,0.233,0.156c-0.233-0.164-0.461-0.335-0.685-0.512
	C5.883,26.898,6.026,27.022,6.183,27.136z"/>
<path fill="#FFFFFF" d="M7.551,28.008c-0.227-0.13-0.45-0.265-0.67-0.406C7.102,27.744,7.325,27.879,7.551,28.008z"/>
<path fill="#FFFFFF" d="M29.281,19.58c-0.127,0.397-0.27,0.787-0.428,1.169C29.013,20.365,29.154,19.975,29.281,19.58z"/>
<path fill="#FFFFFF" d="M28.021,22.427c-0.139,0.243-0.283,0.482-0.435,0.716C27.737,22.908,27.883,22.669,28.021,22.427z"/>
<path fill="#FFFFFF" d="M26.739,5.681c0.193,0.243,0.379,0.49,0.557,0.745C27.118,6.17,26.932,5.923,26.739,5.681z"/>
<path fill="#FFFFFF" d="M10.448,29.293c-0.402-0.128-0.798-0.273-1.185-0.434C9.653,29.021,10.049,29.166,10.448,29.293z"/>
<path fill="#FFFFFF" d="M23.574,2.703c0.247,0.173,0.487,0.354,0.724,0.541C24.062,3.057,23.821,2.875,23.574,2.703z"/>
<path fill="#FFFFFF" d="M29.999,15.005c-0.001,0.474-0.028,0.941-0.071,1.404C29.972,15.944,29.998,15.476,29.999,15.005z"/>
<path fill="#FFFFFF" d="M13.159,29.876c-0.293-0.036-0.583-0.081-0.87-0.133C12.578,29.796,12.868,29.84,13.159,29.876z"/>
<path fill="#FFFFFF" d="M25.639,4.431c0.298,0.3,0.581,0.614,0.854,0.938C26.22,5.044,25.937,4.73,25.639,4.431z"/>
<path fill="#FFFFFF" d="M24.619,3.497c0.339,0.284,0.669,0.58,0.981,0.892C25.287,4.076,24.958,3.781,24.619,3.497z"/>
<path fill="#FFFFFF" d="M20.736,28.859c-0.388,0.161-0.784,0.306-1.188,0.435C19.949,29.166,20.346,29.021,20.736,28.859z"/>
<path fill="#FFFFFF" d="M29.878,16.818c-0.037,0.312-0.085,0.62-0.141,0.925C29.794,17.437,29.84,17.128,29.878,16.818z"/>
<path fill="#FFFFFF" d="M21.949,28.286c-0.243,0.127-0.492,0.244-0.743,0.358C21.456,28.53,21.705,28.414,21.949,28.286z"/>
<path fill="#FFFFFF" d="M22.447,1.993c0.236,0.135,0.47,0.275,0.697,0.423C22.917,2.268,22.684,2.128,22.447,1.993z"/>
<path fill="#FFFFFF" d="M16.365,29.932c-0.444,0.04-0.893,0.067-1.348,0.068C15.468,29.999,15.917,29.972,16.365,29.932z"/>
<path fill="#FFFFFF" d="M29.632,18.265c-0.061,0.273-0.133,0.543-0.208,0.811C29.5,18.807,29.571,18.538,29.632,18.265z"/>
<path fill="#FFFFFF" d="M11.756,29.639c-0.282-0.063-0.56-0.137-0.835-0.215C11.197,29.502,11.476,29.577,11.756,29.639z"/>
<path fill="#FFFFFF" d="M2.413,23.142c-0.152-0.233-0.296-0.473-0.435-0.715C2.116,22.669,2.261,22.907,2.413,23.142z"/>
<path fill="#FFFFFF" d="M29.741,12.283c0.055,0.301,0.102,0.604,0.139,0.911C29.843,12.889,29.797,12.586,29.741,12.283z"/>
<path fill="#FFFFFF" d="M29.266,10.365c-0.126-0.388-0.268-0.768-0.422-1.14c0.163,0.391,0.308,0.791,0.438,1.197
	C29.275,10.403,29.271,10.384,29.266,10.365z"/>
<path fill="#FFFFFF" d="M19.085,29.422c-0.279,0.079-0.56,0.154-0.845,0.217C18.523,29.577,18.805,29.501,19.085,29.422z"/>
<path fill="#FFFFFF" d="M29.432,10.955c0.074,0.265,0.146,0.531,0.206,0.802C29.578,11.489,29.506,11.222,29.432,10.955z"/>
<path fill="#FFFFFF" d="M1.718,21.959c-0.129-0.247-0.247-0.501-0.363-0.756C1.47,21.458,1.588,21.711,1.718,21.959z"/>
<path fill="#FFFFFF" d="M14.977,30c-0.453-0.001-0.899-0.028-1.343-0.068C14.081,29.972,14.528,29.999,14.977,30z"/>
<path fill="#FFFFFF" d="M26.521,24.6c-0.289,0.346-0.59,0.681-0.908,0.999C25.934,25.278,26.234,24.944,26.521,24.6z"/>
<path fill="#FFFFFF" d="M23.816,27.136c0.156-0.114,0.302-0.239,0.453-0.358c-0.225,0.177-0.453,0.351-0.688,0.515
	C23.658,27.239,23.739,27.191,23.816,27.136z"/>
<path fill="#FFFFFF" d="M4.385,25.598C4.067,25.28,3.766,24.946,3.478,24.6C3.765,24.944,4.065,25.278,4.385,25.598z"/>
<path fill="#FFFFFF" d="M3.266,24.328c-0.203-0.254-0.398-0.513-0.584-0.781C2.866,23.814,3.063,24.073,3.266,24.328z"/>
<path fill="#FFFFFF" d="M28.262,8.002c0.14,0.264,0.265,0.535,0.389,0.808C28.526,8.537,28.4,8.266,28.262,8.002z"/>
<path fill="#FFFFFF" d="M25.539,25.667c-0.289,0.286-0.592,0.559-0.903,0.821C24.949,26.226,25.251,25.952,25.539,25.667z"/>
<path fill="#FFFFFF" d="M5.362,26.488c-0.31-0.26-0.609-0.531-0.897-0.815C4.751,25.955,5.051,26.227,5.362,26.488z"/>
<path fill="#FFFFFF" d="M17.712,29.743c-0.289,0.053-0.581,0.097-0.875,0.133C17.13,29.84,17.421,29.796,17.712,29.743z"/>
<path fill="#FFFFFF" d="M29.93,13.626c0.04,0.443,0.066,0.891,0.067,1.345C29.997,14.524,29.971,14.075,29.93,13.626z"/>
<path fill="#FFFFFF" d="M1.979,22.427c-0.089-0.155-0.178-0.31-0.261-0.467C1.802,22.118,1.89,22.272,1.979,22.427z"/>
<path fill="#FFFFFF" d="M1.354,21.204c-0.069-0.152-0.146-0.301-0.209-0.455C1.21,20.903,1.285,21.052,1.354,21.204z"/>
<path fill="#FFFFFF" d="M2.682,23.547c-0.093-0.133-0.181-0.269-0.269-0.405C2.501,23.279,2.589,23.415,2.682,23.547z"/>
<path fill="#FFFFFF" d="M22.444,28.01c-0.164,0.094-0.328,0.188-0.495,0.276C22.117,28.198,22.28,28.104,22.444,28.01z"/>
<path fill="#FFFFFF" d="M19.549,29.293c-0.153,0.049-0.31,0.085-0.464,0.129C19.239,29.378,19.396,29.342,19.549,29.293z"/>
<path fill="#FFFFFF" d="M18.24,29.64c-0.176,0.039-0.352,0.071-0.528,0.104C17.889,29.71,18.065,29.678,18.24,29.64z"/>
<path fill="#FFFFFF" d="M13.634,29.932c-0.158-0.015-0.316-0.036-0.475-0.055C13.317,29.896,13.475,29.917,13.634,29.932z"/>
<path fill="#FFFFFF" d="M16.837,29.876c-0.157,0.02-0.314,0.041-0.472,0.055C16.523,29.917,16.68,29.896,16.837,29.876z"/>
<path fill="#FFFFFF" d="M21.206,28.644c-0.156,0.071-0.311,0.149-0.47,0.215C20.896,28.792,21.05,28.715,21.206,28.644z"/>
<path fill="#FFFFFF" d="M23.581,27.293c-0.152,0.106-0.307,0.208-0.461,0.307C23.275,27.5,23.43,27.399,23.581,27.293z"/>
<path fill="#FFFFFF" d="M25.613,25.599c-0.023,0.024-0.051,0.045-0.074,0.069C25.563,25.644,25.589,25.623,25.613,25.599z"/>
<path fill="#FFFFFF" d="M3.478,24.6c-0.073-0.089-0.141-0.182-0.212-0.272C3.337,24.418,3.404,24.512,3.478,24.6z"/>
<path fill="#FFFFFF" d="M24.636,26.489c-0.119,0.099-0.244,0.193-0.366,0.289C24.392,26.681,24.517,26.588,24.636,26.489z"/>
<path fill="#FFFFFF" d="M5.731,26.78c-0.123-0.097-0.249-0.191-0.369-0.292C5.482,26.589,5.608,26.683,5.731,26.78z"/>
<path fill="#FFFFFF" d="M4.465,25.673c-0.025-0.026-0.055-0.049-0.08-0.075C4.41,25.624,4.439,25.647,4.465,25.673z"/>
<path fill="#FFFFFF" d="M12.289,29.744c-0.178-0.033-0.356-0.065-0.533-0.104C11.933,29.678,12.11,29.711,12.289,29.744z"/>
<path fill="#FFFFFF" d="M6.881,27.602c-0.156-0.101-0.312-0.204-0.465-0.311C6.568,27.398,6.725,27.5,6.881,27.602z"/>
<path fill="#FFFFFF" d="M10.921,29.424c-0.158-0.044-0.316-0.082-0.473-0.131C10.604,29.342,10.763,29.38,10.921,29.424z"/>
<path fill="#FFFFFF" d="M9.264,28.859c-0.161-0.067-0.319-0.146-0.479-0.219C8.944,28.713,9.102,28.792,9.264,28.859z"/>
<path fill="#FFFFFF" d="M8.052,28.287c-0.169-0.088-0.335-0.184-0.501-0.279C7.717,28.104,7.882,28.198,8.052,28.287z"/>
<path fill="#FFFFFF" d="M29.999,15c0-0.01-0.002-0.02-0.002-0.029c0,0.012,0.002,0.023,0.002,0.034
	C29.999,15.004,29.999,15.002,29.999,15z"/>
<path fill="#FFFFFF" d="M28.011,7.558c0.085,0.147,0.171,0.293,0.251,0.444C28.182,7.852,28.096,7.706,28.011,7.558z"/>
<path fill="#FFFFFF" d="M27.296,6.425c0.092,0.131,0.182,0.265,0.27,0.399C27.478,6.69,27.389,6.557,27.296,6.425z"/>
<path fill="#FFFFFF" d="M29.638,11.757c0.039,0.175,0.07,0.35,0.104,0.525C29.708,12.106,29.676,11.931,29.638,11.757z"/>
<path fill="#FFFFFF" d="M26.492,5.369c0.085,0.102,0.165,0.208,0.247,0.312C26.657,5.577,26.577,5.471,26.492,5.369z"/>
<path fill="#FFFFFF" d="M29.281,10.422c0.057,0.177,0.101,0.355,0.15,0.533C29.382,10.777,29.338,10.598,29.281,10.422z"/>
<path fill="#FFFFFF" d="M28.65,8.81c0.063,0.139,0.134,0.274,0.193,0.416C28.784,9.084,28.714,8.949,28.65,8.81z"/>
<path fill="#FFFFFF" d="M25.601,4.389c0.013,0.013,0.025,0.028,0.038,0.042C25.626,4.417,25.613,4.402,25.601,4.389z"/>
<path fill="#FFFFFF" d="M21.982,1.731c0.158,0.083,0.311,0.173,0.465,0.262C22.293,1.904,22.141,1.814,21.982,1.731z"/>
<path fill="#FFFFFF" d="M23.145,2.416c0.145,0.094,0.288,0.189,0.43,0.287C23.433,2.604,23.29,2.51,23.145,2.416z"/>
<path fill="#FFFFFF" d="M24.298,3.244c0.106,0.084,0.217,0.166,0.321,0.253C24.515,3.41,24.404,3.329,24.298,3.244z"/>
<path fill="#FFFFFF" d="M28.854,20.749c-0.064,0.153-0.14,0.302-0.208,0.453C28.714,21.051,28.789,20.903,28.854,20.749z"/>
<path fill="#FFFFFF" d="M27.586,23.143c-0.088,0.136-0.176,0.271-0.269,0.404C27.41,23.414,27.498,23.279,27.586,23.143z"/>
<path fill="#FFFFFF" d="M14.977,30C14.984,30,14.991,30,14.999,30C15.005,30,15.012,30,15.018,30C15.004,30,14.99,30,14.977,30z"/>
<path fill="#FFFFFF" d="M26.521,24.6c0.073-0.087,0.14-0.18,0.21-0.269C26.661,24.419,26.595,24.512,26.521,24.6z"/>
<path fill="#FFFFFF" d="M28.28,21.959c-0.082,0.158-0.172,0.313-0.26,0.467C28.109,22.272,28.197,22.118,28.28,21.959z"/>
<path fill="#FFFFFF" d="M29.928,16.41c-0.013,0.137-0.033,0.272-0.05,0.408C29.895,16.682,29.915,16.547,29.928,16.41z"/>
<path fill="#FFFFFF" d="M29.88,13.193c0.018,0.145,0.036,0.289,0.05,0.433C29.916,13.481,29.897,13.337,29.88,13.193z"/>
<path fill="#FFFFFF" d="M29.737,17.743c-0.033,0.174-0.066,0.349-0.105,0.522C29.671,18.092,29.704,17.918,29.737,17.743z"/>
<path fill="#FFFFFF" d="M29.424,19.076c-0.048,0.168-0.09,0.338-0.143,0.504C29.334,19.414,29.376,19.244,29.424,19.076z"/>
<path fill="#FFFFFF" d="M29.997,14.971c-0.001-0.454-0.027-0.901-0.067-1.345c-0.014-0.145-0.032-0.289-0.05-0.433
	c-0.037-0.307-0.084-0.61-0.139-0.911c-0.033-0.175-0.064-0.351-0.104-0.525c-0.06-0.271-0.132-0.537-0.206-0.802
	c-0.05-0.178-0.094-0.356-0.15-0.533c-0.13-0.406-0.274-0.806-0.438-1.197c-0.06-0.142-0.13-0.276-0.193-0.416
	c-0.124-0.273-0.249-0.544-0.389-0.808c-0.08-0.151-0.166-0.296-0.251-0.444c-0.143-0.249-0.289-0.494-0.445-0.733
	c-0.088-0.135-0.178-0.268-0.27-0.399c-0.178-0.254-0.363-0.502-0.557-0.745c-0.082-0.104-0.162-0.21-0.247-0.312
	c-0.272-0.324-0.556-0.638-0.854-0.938c-0.013-0.014-0.025-0.028-0.038-0.042c-0.313-0.313-0.643-0.608-0.981-0.892
	c-0.104-0.087-0.215-0.168-0.321-0.253c-0.236-0.187-0.477-0.368-0.724-0.541c-0.142-0.098-0.285-0.193-0.43-0.287
	c-0.228-0.148-0.461-0.288-0.697-0.423c-0.154-0.088-0.307-0.179-0.465-0.262c-0.269-0.142-0.546-0.271-0.824-0.397
	c-0.129-0.058-0.254-0.123-0.385-0.178c-0.386-0.161-0.781-0.304-1.183-0.433c-0.162-0.053-0.328-0.095-0.493-0.141
	c-0.273-0.078-0.549-0.151-0.829-0.213c-0.171-0.038-0.344-0.072-0.518-0.104c-0.301-0.056-0.605-0.102-0.912-0.14
	c-0.148-0.018-0.296-0.04-0.445-0.054C15.934,0.028,15.469,0,14.999,0c-0.469,0-0.934,0.028-1.394,0.071
	c-0.15,0.014-0.299,0.036-0.448,0.054c-0.306,0.038-0.609,0.083-0.909,0.139c-0.174,0.033-0.348,0.067-0.52,0.105
	c-0.279,0.062-0.554,0.135-0.826,0.212c-0.165,0.047-0.332,0.089-0.496,0.142c-0.399,0.129-0.794,0.271-1.178,0.432
	C9.097,1.209,8.97,1.275,8.84,1.334C8.562,1.459,8.284,1.589,8.016,1.731C7.858,1.814,7.705,1.904,7.551,1.992
	c-0.236,0.136-0.47,0.276-0.698,0.424C6.709,2.51,6.565,2.604,6.425,2.703C6.177,2.876,5.936,3.058,5.699,3.246
	C5.593,3.33,5.484,3.41,5.38,3.497c-0.339,0.284-0.669,0.58-0.981,0.893C4.385,4.402,4.373,4.417,4.359,4.431
	c-0.298,0.3-0.58,0.614-0.852,0.938c-0.086,0.103-0.167,0.21-0.25,0.315C3.066,5.924,2.881,6.17,2.704,6.423
	C2.611,6.556,2.521,6.691,2.432,6.828c-0.154,0.236-0.3,0.479-0.44,0.725c-0.086,0.15-0.175,0.299-0.256,0.453
	C1.601,8.262,1.479,8.526,1.357,8.791C1.29,8.938,1.216,9.08,1.153,9.229C1,9.6,0.859,9.979,0.733,10.365
	c-0.005,0.017-0.009,0.035-0.015,0.052c-0.059,0.185-0.104,0.371-0.156,0.557c-0.071,0.257-0.142,0.514-0.199,0.776
	c-0.04,0.18-0.073,0.36-0.106,0.54c-0.054,0.295-0.101,0.594-0.137,0.895c-0.018,0.149-0.037,0.297-0.051,0.446
	c-0.04,0.437-0.065,0.877-0.067,1.323C0.002,14.97,0,14.985,0,15c0,0.003,0,0.005,0,0.008c0.001,0.472,0.028,0.938,0.071,1.399
	c0.013,0.139,0.033,0.277,0.05,0.416c0.038,0.309,0.084,0.615,0.141,0.918c0.032,0.175,0.066,0.351,0.105,0.525
	c0.061,0.272,0.132,0.54,0.207,0.807c0.048,0.169,0.09,0.34,0.144,0.507c0.127,0.396,0.27,0.787,0.428,1.168
	c0.063,0.154,0.14,0.303,0.209,0.455c0.116,0.255,0.234,0.509,0.363,0.756c0.083,0.158,0.172,0.313,0.261,0.467
	c0.139,0.243,0.282,0.482,0.435,0.715c0.088,0.136,0.176,0.272,0.269,0.405c0.186,0.268,0.381,0.527,0.584,0.781
	c0.071,0.09,0.139,0.183,0.212,0.272c0.288,0.346,0.59,0.68,0.907,0.998c0.025,0.025,0.055,0.049,0.08,0.075
	c0.288,0.284,0.588,0.555,0.897,0.815c0.12,0.101,0.246,0.195,0.369,0.292c0.224,0.176,0.451,0.348,0.685,0.512
	c0.153,0.107,0.309,0.209,0.465,0.311c0.22,0.141,0.443,0.276,0.67,0.406c0.166,0.095,0.332,0.19,0.501,0.279
	c0.239,0.126,0.485,0.241,0.733,0.354c0.159,0.073,0.317,0.152,0.479,0.219c0.387,0.161,0.782,0.305,1.185,0.434
	c0.156,0.049,0.314,0.087,0.473,0.131c0.275,0.078,0.553,0.152,0.835,0.215c0.177,0.039,0.355,0.072,0.533,0.104
	c0.287,0.052,0.577,0.097,0.87,0.133c0.158,0.02,0.316,0.041,0.475,0.055c0.443,0.04,0.89,0.067,1.343,0.068
	c0.014,0,0.027,0,0.041,0c0.455,0,0.903-0.028,1.348-0.068c0.157-0.015,0.314-0.036,0.472-0.055
	c0.294-0.036,0.586-0.081,0.875-0.133c0.177-0.033,0.353-0.065,0.528-0.104c0.285-0.063,0.565-0.138,0.845-0.217
	c0.154-0.044,0.311-0.08,0.464-0.129c0.403-0.128,0.8-0.274,1.188-0.435c0.159-0.066,0.313-0.144,0.47-0.215
	c0.251-0.114,0.5-0.23,0.743-0.358c0.167-0.087,0.331-0.182,0.495-0.276c0.229-0.131,0.455-0.268,0.676-0.41
	c0.154-0.1,0.309-0.201,0.461-0.307c0.235-0.165,0.464-0.338,0.688-0.515c0.122-0.096,0.247-0.19,0.366-0.289
	c0.312-0.262,0.614-0.535,0.903-0.821c0.023-0.023,0.051-0.045,0.074-0.069c0.318-0.318,0.619-0.653,0.908-0.999
	c0.073-0.088,0.14-0.18,0.21-0.269c0.203-0.255,0.4-0.516,0.586-0.784c0.093-0.133,0.181-0.269,0.269-0.404
	c0.151-0.234,0.296-0.473,0.435-0.716c0.088-0.155,0.178-0.31,0.26-0.467c0.13-0.248,0.249-0.502,0.365-0.757
	c0.068-0.151,0.144-0.3,0.208-0.453c0.158-0.382,0.301-0.772,0.428-1.169c0.053-0.167,0.095-0.336,0.143-0.504
	c0.075-0.268,0.147-0.537,0.208-0.811c0.039-0.173,0.072-0.348,0.105-0.522c0.056-0.305,0.104-0.614,0.141-0.925
	c0.017-0.136,0.037-0.271,0.05-0.408c0.043-0.463,0.07-0.93,0.071-1.404C29.999,14.994,29.997,14.983,29.997,14.971z M18.77,10.25
	c-0.074,0-0.129,0-0.185,0c-0.449,0-0.896-0.012-1.344,0.004c-0.613,0.02-1.067,0.255-1.089,1.021
	c-0.015,0.559-0.021,1.847-0.021,1.847s1.441,0.002,2.068,0c0.159-0.001,0.319,0,0.496,0c-0.115,0.892-0.227,1.748-0.339,2.612
	h-2.208v6.526h-2.706v-6.537h-2.215v-2.6h2.228v-0.196c0-0.523-0.011-1.044,0.001-1.567c0.01-0.333,0.024-0.671,0.082-0.999
	c0.14-0.792,0.504-1.465,1.169-1.944c0.58-0.415,1.244-0.586,1.945-0.6c0.46-0.011,0.92,0.012,1.378,0.032
	c0.251,0.012,0.5,0.046,0.739,0.07V10.25z"/>
</svg>
