<?xml version="1.0" encoding="utf-8"?>
<!-- Generator: Adobe Illustrator 16.0.0, SVG Export Plug-In . SVG Version: 6.00 Build 0)  -->
<!DOCTYPE svg PUBLIC "-//W3C//DTD SVG 1.1//EN" "http://www.w3.org/Graphics/SVG/1.1/DTD/svg11.dtd">
<svg version="1.1" id="圖層_1" xmlns="http://www.w3.org/2000/svg" xmlns:xlink="http://www.w3.org/1999/xlink" x="0px" y="0px"
	 width="29.998px" height="29.999px" viewBox="0 0 29.998 29.999" enable-background="new 0 0 29.998 29.999" xml:space="preserve">
<path fill="#FFFFFF" d="M1.719,21.96c-0.132-0.25-0.251-0.507-0.369-0.766C1.467,21.453,1.587,21.709,1.719,21.96z"/>
<path fill="#FFFFFF" d="M2.412,23.141c-0.151-0.234-0.296-0.473-0.435-0.715C2.115,22.668,2.261,22.906,2.412,23.141z"/>
<path fill="#FFFFFF" d="M27.321,23.542c-0.19,0.274-0.392,0.54-0.599,0.8C26.931,24.081,27.132,23.815,27.321,23.542z"/>
<path fill="#FFFFFF" d="M21.947,28.287c-0.24,0.126-0.487,0.241-0.736,0.354C21.459,28.528,21.705,28.413,21.947,28.287z"/>
<path fill="#FFFFFF" d="M26.524,24.596c-0.29,0.348-0.594,0.685-0.914,1.005C25.933,25.279,26.235,24.942,26.524,24.596z"/>
<path fill="#FFFFFF" d="M19.078,29.424c-0.276,0.078-0.554,0.152-0.836,0.215C18.522,29.577,18.801,29.502,19.078,29.424z"/>
<path fill="#FFFFFF" d="M20.735,28.858c-0.387,0.161-0.782,0.306-1.186,0.434C19.95,29.165,20.345,29.02,20.735,28.858z"/>
<path fill="#FFFFFF" d="M17.709,29.743c-0.287,0.052-0.577,0.097-0.869,0.132C17.131,29.84,17.42,29.796,17.709,29.743z"/>
<path fill="#FFFFFF" d="M25.558,25.65c-0.296,0.293-0.604,0.572-0.924,0.84C24.955,26.221,25.264,25.941,25.558,25.65z"/>
<path fill="#FFFFFF" d="M23.816,27.135c0.158-0.115,0.305-0.241,0.457-0.36c-0.227,0.178-0.456,0.353-0.692,0.518
	C23.658,27.238,23.739,27.191,23.816,27.135z"/>
<path fill="#FFFFFF" d="M23.119,27.6c-0.22,0.142-0.444,0.278-0.673,0.408C22.674,27.878,22.897,27.743,23.119,27.6z"/>
<path fill="#FFFFFF" d="M14.965,29.998c-0.448-0.001-0.891-0.027-1.328-0.067C14.078,29.972,14.521,29.997,14.965,29.998z"/>
<path fill="#FFFFFF" d="M10.443,29.291c-0.399-0.127-0.791-0.271-1.175-0.43C9.655,29.021,10.047,29.165,10.443,29.291z"/>
<path fill="#FFFFFF" d="M6.183,27.135c0.073,0.053,0.15,0.098,0.225,0.15c-0.226-0.158-0.444-0.324-0.66-0.494
	C5.893,26.905,6.032,27.025,6.183,27.135z"/>
<path fill="#FFFFFF" d="M5.357,26.483c-0.302-0.253-0.593-0.518-0.873-0.793C4.764,25.964,5.054,26.229,5.357,26.483z"/>
<path fill="#FFFFFF" d="M7.539,28.001c-0.22-0.126-0.436-0.256-0.647-0.393C7.105,27.745,7.32,27.875,7.539,28.001z"/>
<path fill="#FFFFFF" d="M4.383,25.595c-0.316-0.317-0.616-0.65-0.903-0.994C3.765,24.944,4.064,25.276,4.383,25.595z"/>
<path fill="#FFFFFF" d="M8.766,28.631c-0.238-0.109-0.476-0.219-0.707-0.34C8.291,28.412,8.528,28.522,8.766,28.631z"/>
<path fill="#FFFFFF" d="M13.153,29.875c-0.289-0.036-0.575-0.079-0.859-0.131C12.58,29.796,12.865,29.839,13.153,29.875z"/>
<path fill="#FFFFFF" d="M11.751,29.638c-0.275-0.061-0.546-0.134-0.815-0.21C11.206,29.504,11.478,29.577,11.751,29.638z"/>
<path fill="#FFFFFF" d="M3.262,24.323c-0.201-0.252-0.396-0.51-0.58-0.775C2.865,23.813,3.061,24.069,3.262,24.323z"/>
<path fill="#FFFFFF" d="M16.363,29.931c-0.441,0.04-0.886,0.066-1.337,0.067C15.473,29.998,15.918,29.972,16.363,29.931z"/>
<path fill="#FFFFFF" d="M26.724,5.66c0.202,0.253,0.396,0.511,0.581,0.777C27.119,6.17,26.925,5.912,26.724,5.66z"/>
<path fill="#FFFFFF" d="M28.256,7.991c0.149,0.281,0.284,0.571,0.416,0.862C28.54,8.561,28.404,8.272,28.256,7.991z"/>
<path fill="#FFFFFF" d="M27.557,6.811c0.164,0.25,0.317,0.506,0.466,0.767C27.874,7.317,27.72,7.061,27.557,6.811z"/>
<path fill="#FFFFFF" d="M28.025,22.418c-0.142,0.248-0.289,0.492-0.444,0.731C27.736,22.91,27.884,22.666,28.025,22.418z"/>
<path fill="#FFFFFF" d="M0.071,16.415C0.027,15.948,0,15.478,0,15C0,15.474,0.026,15.945,0.071,16.415z"/>
<path fill="#FFFFFF" d="M29.633,18.259c-0.062,0.279-0.135,0.554-0.213,0.827C29.498,18.813,29.571,18.537,29.633,18.259z"/>
<path fill="#FFFFFF" d="M0,15c0-0.466,0.028-0.925,0.069-1.38C0.027,14.081,0,14.541,0,15z"/>
<path fill="#FFFFFF" d="M29.266,10.364c-0.127-0.391-0.27-0.773-0.426-1.147c0.166,0.395,0.313,0.8,0.443,1.211
	C29.276,10.407,29.272,10.386,29.266,10.364z"/>
<path fill="#FFFFFF" d="M29.879,16.809c-0.038,0.316-0.086,0.63-0.144,0.94C29.794,17.437,29.841,17.124,29.879,16.809z"/>
<path fill="#FFFFFF" d="M29.282,19.576c-0.128,0.399-0.271,0.792-0.431,1.176C29.012,20.366,29.154,19.974,29.282,19.576z"/>
<path fill="#FFFFFF" d="M1.146,20.751c-0.159-0.384-0.303-0.776-0.43-1.175C0.844,19.973,0.986,20.365,1.146,20.751z"/>
<path fill="#FFFFFF" d="M28.652,21.186c-0.119,0.263-0.241,0.524-0.375,0.778C28.411,21.709,28.533,21.448,28.652,21.186z"/>
<path fill="#FFFFFF" d="M0.578,19.087c-0.077-0.274-0.151-0.549-0.213-0.83C0.427,18.537,0.5,18.813,0.578,19.087z"/>
<path fill="#FFFFFF" d="M0.263,17.751c-0.058-0.313-0.105-0.628-0.145-0.946C0.157,17.122,0.204,17.438,0.263,17.751z"/>
<path fill="#FFFFFF" d="M29.738,12.272c0.057,0.307,0.105,0.618,0.143,0.931C29.843,12.892,29.796,12.582,29.738,12.272z"/>
<path fill="#FFFFFF" d="M29.425,10.933c0.078,0.275,0.152,0.551,0.214,0.832C29.577,11.486,29.503,11.209,29.425,10.933z"/>
<path fill="#FFFFFF" d="M0.733,10.364c-0.007,0.02-0.011,0.039-0.017,0.059c0.13-0.407,0.275-0.808,0.438-1.199
	C1.001,9.596,0.859,9.976,0.733,10.364z"/>
<path fill="#FFFFFF" d="M0.36,11.761c0.061-0.274,0.134-0.544,0.209-0.813C0.493,11.218,0.42,11.489,0.36,11.761z"/>
<path fill="#FFFFFF" d="M29.998,15.001c0,0.477-0.027,0.946-0.071,1.412C29.972,15.945,29.998,15.474,29.998,15.001z"/>
<path fill="#FFFFFF" d="M0.117,13.203c0.038-0.313,0.086-0.622,0.142-0.928C0.202,12.584,0.155,12.893,0.117,13.203z"/>
<path fill="#FFFFFF" d="M29.929,13.62c0.041,0.453,0.069,0.909,0.069,1.372C29.998,14.536,29.971,14.078,29.929,13.62z"/>
<path fill="#FFFFFF" d="M0.259,12.275c0.032-0.171,0.063-0.343,0.102-0.514C0.322,11.931,0.291,12.103,0.259,12.275z"/>
<path fill="#FFFFFF" d="M0.569,10.948c0.049-0.175,0.092-0.351,0.147-0.525C0.661,10.596,0.618,10.773,0.569,10.948z"/>
<path fill="#FFFFFF" d="M29.881,13.203c0.017,0.139,0.035,0.278,0.048,0.417C29.916,13.48,29.897,13.342,29.881,13.203z"/>
<path fill="#FFFFFF" d="M29.639,11.764c0.038,0.169,0.068,0.338,0.1,0.508C29.707,12.102,29.676,11.932,29.639,11.764z"/>
<path fill="#FFFFFF" d="M0.365,18.258c-0.038-0.168-0.07-0.337-0.103-0.507C0.295,17.921,0.328,18.09,0.365,18.258z"/>
<path fill="#FFFFFF" d="M29.283,10.429c0.054,0.167,0.095,0.336,0.142,0.504C29.378,10.765,29.337,10.594,29.283,10.429z"/>
<path fill="#FFFFFF" d="M29.927,16.413c-0.013,0.132-0.031,0.264-0.048,0.396C29.895,16.676,29.915,16.546,29.927,16.413z"/>
<path fill="#FFFFFF" d="M29.735,17.749c-0.031,0.171-0.064,0.341-0.103,0.511C29.671,18.09,29.704,17.92,29.735,17.749z"/>
<polygon fill="#FFFFFF" points="29.998,15 29.998,14.992 29.998,15.001 "/>
<path fill="#FFFFFF" d="M0.118,16.805c-0.016-0.13-0.034-0.26-0.047-0.39C0.084,16.546,0.103,16.674,0.118,16.805z"/>
<polygon fill="#FFFFFF" points="0,15 0,15 0,15 "/>
<path fill="#FFFFFF" d="M29.42,19.086c-0.046,0.163-0.086,0.328-0.138,0.49C29.333,19.415,29.374,19.25,29.42,19.086z"/>
<path fill="#FFFFFF" d="M28.672,8.854c0.055,0.122,0.116,0.24,0.168,0.364C28.788,9.094,28.727,8.976,28.672,8.854z"/>
<path fill="#FFFFFF" d="M0.069,13.62c0.013-0.139,0.031-0.278,0.048-0.417C0.101,13.342,0.082,13.479,0.069,13.62z"/>
<path fill="#FFFFFF" d="M28.852,20.752c-0.062,0.147-0.134,0.289-0.199,0.434C28.718,21.041,28.79,20.899,28.852,20.752z"/>
<path fill="#FFFFFF" d="M27.305,6.437c0.086,0.124,0.17,0.248,0.252,0.375C27.475,6.685,27.391,6.56,27.305,6.437z"/>
<path fill="#FFFFFF" d="M28.022,7.578c0.078,0.138,0.159,0.273,0.233,0.414C28.182,7.851,28.102,7.715,28.022,7.578z"/>
<path fill="#FFFFFF" d="M26.499,5.377c0.077,0.092,0.149,0.188,0.225,0.283C26.648,5.565,26.576,5.469,26.499,5.377z"/>
<path fill="#FFFFFF" d="M25.61,25.601c-0.017,0.017-0.036,0.032-0.053,0.049C25.575,25.633,25.594,25.618,25.61,25.601z"/>
<path fill="#FFFFFF" d="M10.936,29.428c-0.164-0.046-0.329-0.085-0.492-0.137C10.605,29.342,10.771,29.382,10.936,29.428z"/>
<path fill="#FFFFFF" d="M12.294,29.744c-0.181-0.034-0.362-0.066-0.543-0.106C11.931,29.677,12.112,29.711,12.294,29.744z"/>
<path fill="#FFFFFF" d="M8.059,28.291c-0.176-0.092-0.348-0.191-0.52-0.29C7.711,28.1,7.882,28.198,8.059,28.291z"/>
<path fill="#FFFFFF" d="M9.269,28.861c-0.17-0.07-0.335-0.153-0.503-0.23C8.934,28.708,9.098,28.79,9.269,28.861z"/>
<path fill="#FFFFFF" d="M23.581,27.292c-0.152,0.106-0.307,0.208-0.462,0.308C23.274,27.5,23.429,27.398,23.581,27.292z"/>
<path fill="#FFFFFF" d="M13.637,29.931c-0.162-0.015-0.322-0.036-0.483-0.056C13.313,29.895,13.474,29.917,13.637,29.931z"/>
<path fill="#FFFFFF" d="M18.242,29.639c-0.178,0.039-0.355,0.072-0.533,0.104C17.888,29.71,18.065,29.678,18.242,29.639z"/>
<path fill="#FFFFFF" d="M19.55,29.292c-0.155,0.049-0.314,0.087-0.472,0.131C19.235,29.379,19.396,29.342,19.55,29.292z"/>
<path fill="#FFFFFF" d="M16.84,29.875c-0.159,0.02-0.317,0.041-0.477,0.056C16.523,29.917,16.681,29.895,16.84,29.875z"/>
<path fill="#FFFFFF" d="M26.524,24.596c0.068-0.083,0.131-0.169,0.198-0.253C26.655,24.426,26.593,24.513,26.524,24.596z"/>
<path fill="#FFFFFF" d="M22.446,28.008c-0.165,0.095-0.33,0.19-0.499,0.278C22.117,28.198,22.281,28.104,22.446,28.008z"/>
<path fill="#FFFFFF" d="M21.211,28.641c-0.158,0.072-0.315,0.151-0.476,0.217C20.897,28.792,21.053,28.714,21.211,28.641z"/>
<path fill="#FFFFFF" d="M24.634,26.49c-0.117,0.098-0.24,0.19-0.36,0.285C24.394,26.679,24.517,26.588,24.634,26.49z"/>
<path fill="#FFFFFF" d="M14.965,29.998c0.012,0,0.022,0.002,0.033,0.002c0.01,0,0.019-0.001,0.028-0.001
	C15.006,29.999,14.985,29.998,14.965,29.998z"/>
<path fill="#FFFFFF" d="M1.978,22.426c-0.088-0.154-0.177-0.309-0.259-0.466C1.802,22.118,1.89,22.271,1.978,22.426z"/>
<path fill="#FFFFFF" d="M3.479,24.601c-0.076-0.091-0.145-0.186-0.218-0.278C3.335,24.415,3.403,24.511,3.479,24.601z"/>
<path fill="#FFFFFF" d="M2.682,23.548c-0.093-0.134-0.182-0.27-0.27-0.407C2.501,23.278,2.589,23.414,2.682,23.548z"/>
<path fill="#FFFFFF" d="M0.717,19.576c-0.052-0.161-0.093-0.326-0.139-0.489C0.624,19.25,0.665,19.416,0.717,19.576z"/>
<path fill="#FFFFFF" d="M27.581,23.149c-0.085,0.132-0.171,0.263-0.26,0.393C27.41,23.413,27.495,23.281,27.581,23.149z"/>
<path fill="#FFFFFF" d="M1.35,21.194c-0.067-0.148-0.141-0.293-0.203-0.443C1.209,20.901,1.282,21.046,1.35,21.194z"/>
<path fill="#FFFFFF" d="M28.277,21.964c-0.08,0.153-0.167,0.303-0.252,0.454C28.111,22.268,28.196,22.118,28.277,21.964z"/>
<path fill="#FFFFFF" d="M6.892,27.608c-0.162-0.105-0.324-0.211-0.484-0.323C6.566,27.396,6.729,27.502,6.892,27.608z"/>
<path fill="#FFFFFF" d="M4.484,25.689c-0.033-0.032-0.069-0.062-0.102-0.094C4.415,25.628,4.451,25.657,4.484,25.689z"/>
<path fill="#FFFFFF" d="M5.747,26.791c-0.131-0.103-0.264-0.202-0.39-0.308C5.483,26.59,5.616,26.688,5.747,26.791z"/>
<g>
	<path fill="#FFFFFF" d="M16.93,16.808c-0.299,0-0.578,0.165-0.843,0.488v-1.975h-0.816v6.046h0.816v-0.437
		c0.273,0.338,0.553,0.499,0.843,0.499c0.326,0,0.544-0.17,0.653-0.506c0.055-0.19,0.081-0.492,0.081-0.908v-1.794
		c0-0.424-0.026-0.723-0.081-0.904C17.474,16.979,17.256,16.808,16.93,16.808z M16.849,20.08c0,0.408-0.119,0.607-0.354,0.607
		c-0.134,0-0.271-0.064-0.407-0.2V17.74c0.137-0.134,0.273-0.198,0.407-0.198c0.235,0,0.354,0.209,0.354,0.615V20.08z"/>
	<path fill="#FFFFFF" d="M19.53,16.808c-0.417,0-0.742,0.154-0.978,0.461c-0.175,0.229-0.253,0.581-0.253,1.062v1.578
		c0,0.477,0.091,0.833,0.263,1.059c0.235,0.307,0.56,0.461,0.987,0.461s0.762-0.161,0.987-0.488
		c0.099-0.146,0.164-0.309,0.189-0.489c0.01-0.082,0.021-0.264,0.021-0.525v-0.12h-0.836c0,0.328-0.009,0.508-0.017,0.553
		c-0.046,0.218-0.164,0.328-0.364,0.328c-0.28,0-0.417-0.207-0.417-0.625v-0.798h1.634v-0.933c0-0.481-0.086-0.833-0.255-1.062
		C20.264,16.962,19.938,16.808,19.53,16.808z M19.93,18.584h-0.816v-0.416c0-0.417,0.137-0.626,0.41-0.626
		c0.27,0,0.406,0.209,0.406,0.626V18.584z"/>
	<path fill="#FFFFFF" d="M13.748,20.306c-0.181,0.255-0.354,0.381-0.517,0.381c-0.109,0-0.171-0.064-0.19-0.191
		c-0.008-0.026-0.008-0.126-0.008-0.317v-3.317h-0.815v3.562c0,0.318,0.026,0.533,0.072,0.67c0.081,0.228,0.263,0.335,0.524,0.335
		c0.302,0,0.609-0.181,0.934-0.554v0.492h0.817v-4.505h-0.817V20.306z"/>
	<polygon fill="#FFFFFF" points="9.253,16.174 10.213,16.174 10.213,21.367 11.12,21.367 11.12,16.174 12.099,16.174 12.099,15.321 
		9.253,15.321 	"/>
	<path fill="#FFFFFF" d="M14.812,12.268c0.267,0,0.393-0.209,0.393-0.63V9.722c0-0.422-0.126-0.632-0.393-0.632
		s-0.395,0.21-0.395,0.632v1.916C14.417,12.058,14.545,12.268,14.812,12.268z"/>
	<path fill="#FFFFFF" d="M29.998,14.992c0-0.463-0.028-0.919-0.069-1.372c-0.013-0.139-0.031-0.278-0.048-0.417
		c-0.037-0.313-0.086-0.624-0.143-0.931c-0.031-0.169-0.062-0.339-0.1-0.508c-0.062-0.281-0.136-0.557-0.214-0.832
		c-0.047-0.168-0.088-0.337-0.142-0.504c-0.131-0.412-0.277-0.816-0.443-1.211c-0.052-0.124-0.113-0.242-0.168-0.364
		c-0.132-0.292-0.267-0.581-0.416-0.862c-0.074-0.14-0.155-0.276-0.233-0.414c-0.148-0.26-0.302-0.517-0.466-0.767
		c-0.082-0.126-0.166-0.251-0.252-0.375c-0.186-0.266-0.379-0.524-0.581-0.777c-0.075-0.094-0.147-0.19-0.225-0.283
		c-0.574-0.686-1.204-1.316-1.887-1.886c-0.097-0.081-0.198-0.156-0.297-0.234c-0.244-0.193-0.492-0.381-0.748-0.559
		c-0.137-0.095-0.275-0.187-0.415-0.277c-0.232-0.151-0.471-0.294-0.712-0.433c-0.151-0.086-0.301-0.174-0.454-0.255
		c-0.273-0.144-0.554-0.275-0.836-0.402c-0.125-0.056-0.246-0.12-0.373-0.173c-0.387-0.162-0.783-0.304-1.186-0.434
		C19.428,0.67,19.26,0.627,19.094,0.58c-0.271-0.077-0.544-0.149-0.821-0.211c-0.175-0.039-0.351-0.074-0.527-0.106
		c-0.295-0.055-0.594-0.1-0.895-0.137c-0.154-0.019-0.308-0.042-0.463-0.056C15.929,0.028,15.467,0,14.999,0l0,0c0,0,0,0-0.001,0
		s-0.002,0-0.004,0c-0.466,0-0.926,0.028-1.382,0.07c-0.158,0.015-0.314,0.038-0.472,0.057c-0.297,0.037-0.592,0.081-0.883,0.135
		c-0.181,0.033-0.36,0.069-0.538,0.109c-0.271,0.061-0.537,0.131-0.802,0.206c-0.173,0.049-0.347,0.093-0.517,0.148
		c-0.38,0.122-0.753,0.258-1.119,0.409c-0.157,0.065-0.311,0.14-0.466,0.21C8.548,1.466,8.279,1.591,8.02,1.729
		C7.858,1.813,7.702,1.905,7.545,1.995C7.312,2.129,7.081,2.268,6.856,2.414C6.71,2.508,6.565,2.604,6.423,2.704
		C6.176,2.876,5.937,3.057,5.701,3.243C5.595,3.328,5.484,3.409,5.38,3.497c-0.34,0.284-0.669,0.58-0.982,0.893
		C4.385,4.401,4.374,4.415,4.361,4.428C4.063,4.729,3.778,5.044,3.506,5.37c-0.084,0.1-0.163,0.205-0.244,0.308
		C3.067,5.921,2.88,6.17,2.701,6.427c-0.091,0.13-0.18,0.262-0.267,0.395C2.277,7.063,2.129,7.311,1.985,7.561
		C1.902,7.707,1.816,7.851,1.738,8C1.597,8.267,1.47,8.541,1.345,8.817C1.282,8.953,1.214,9.085,1.155,9.224
		c-0.163,0.391-0.309,0.792-0.438,1.199c-0.056,0.174-0.099,0.35-0.147,0.525c-0.075,0.269-0.148,0.538-0.209,0.813
		c-0.038,0.171-0.069,0.343-0.102,0.514c-0.056,0.306-0.104,0.615-0.142,0.928c-0.017,0.139-0.035,0.278-0.048,0.417
		C0.028,14.075,0,14.534,0,15c0,0.478,0.027,0.948,0.071,1.415c0.013,0.13,0.031,0.26,0.047,0.39
		c0.039,0.318,0.087,0.634,0.145,0.946c0.032,0.169,0.064,0.339,0.103,0.507c0.062,0.28,0.136,0.556,0.213,0.83
		c0.046,0.163,0.087,0.328,0.139,0.489c0.127,0.399,0.271,0.791,0.43,1.175c0.063,0.15,0.136,0.295,0.203,0.443
		c0.118,0.258,0.237,0.516,0.369,0.766c0.082,0.157,0.171,0.312,0.259,0.466c0.139,0.243,0.283,0.481,0.435,0.715
		c0.088,0.137,0.177,0.273,0.27,0.407c0.185,0.265,0.379,0.522,0.58,0.775c0.073,0.092,0.142,0.188,0.218,0.278
		c0.287,0.344,0.587,0.677,0.903,0.994c0.032,0.033,0.068,0.062,0.102,0.094c0.28,0.276,0.571,0.541,0.873,0.793
		c0.126,0.106,0.259,0.206,0.39,0.308c0.216,0.169,0.435,0.336,0.66,0.494c0.16,0.112,0.322,0.218,0.484,0.323
		c0.212,0.137,0.428,0.267,0.647,0.393c0.172,0.099,0.344,0.198,0.52,0.29c0.231,0.121,0.469,0.231,0.707,0.34
		c0.168,0.077,0.333,0.16,0.503,0.23c0.384,0.159,0.775,0.303,1.175,0.43c0.163,0.052,0.328,0.091,0.492,0.137
		c0.27,0.076,0.54,0.149,0.815,0.21c0.181,0.04,0.362,0.073,0.543,0.106c0.284,0.052,0.57,0.095,0.859,0.131
		c0.161,0.02,0.321,0.042,0.483,0.056c0.438,0.04,0.88,0.066,1.328,0.067c0.021,0,0.041,0,0.062,0
		c0.451-0.001,0.896-0.028,1.337-0.067c0.159-0.015,0.317-0.036,0.477-0.056c0.292-0.036,0.582-0.08,0.869-0.132
		c0.178-0.033,0.355-0.065,0.533-0.104c0.282-0.063,0.56-0.137,0.836-0.215c0.157-0.044,0.316-0.082,0.472-0.131
		c0.403-0.128,0.799-0.273,1.186-0.434c0.16-0.066,0.317-0.145,0.476-0.217c0.249-0.113,0.496-0.229,0.736-0.354
		c0.169-0.088,0.334-0.183,0.499-0.278c0.229-0.13,0.453-0.266,0.673-0.408c0.155-0.1,0.31-0.202,0.462-0.308
		c0.236-0.165,0.466-0.339,0.692-0.518c0.12-0.095,0.243-0.187,0.36-0.285c0.319-0.268,0.628-0.547,0.924-0.84
		c0.017-0.017,0.036-0.032,0.053-0.049c0.32-0.32,0.624-0.657,0.914-1.005c0.068-0.083,0.131-0.169,0.198-0.253
		c0.207-0.26,0.408-0.526,0.599-0.8c0.089-0.129,0.175-0.261,0.26-0.393c0.155-0.239,0.303-0.483,0.444-0.731
		c0.085-0.151,0.172-0.301,0.252-0.454c0.134-0.254,0.256-0.516,0.375-0.778c0.065-0.145,0.138-0.287,0.199-0.434
		c0.159-0.384,0.303-0.776,0.431-1.176c0.052-0.162,0.092-0.327,0.138-0.49c0.078-0.273,0.151-0.548,0.213-0.827
		c0.038-0.169,0.071-0.34,0.103-0.511c0.058-0.31,0.105-0.624,0.144-0.94c0.017-0.132,0.035-0.263,0.048-0.396
		c0.044-0.465,0.071-0.935,0.071-1.412C29.998,14.998,29.998,14.995,29.998,14.992z M21.516,21.638
		c-0.166,0.718-0.753,1.247-1.46,1.328c-1.675,0.186-3.369,0.187-5.057,0.186c-1.688,0.001-3.383,0-5.058-0.186
		c-0.707-0.081-1.294-0.61-1.459-1.328c-0.235-1.023-0.235-2.14-0.235-3.192c0-1.054,0.002-2.168,0.237-3.192
		c0.165-0.718,0.752-1.248,1.461-1.327c1.674-0.188,3.368-0.188,5.056-0.188c1.687,0,3.383,0,5.058,0.188
		c0.707,0.079,1.294,0.609,1.458,1.327c0.235,1.024,0.235,2.139,0.235,3.192C21.752,19.498,21.752,20.614,21.516,21.638z
		 M14.812,8.349c0.413,0,0.733,0.156,0.961,0.467C15.946,9.045,16.03,9.4,16.03,9.887v1.594c0,0.484-0.084,0.843-0.258,1.071
		c-0.228,0.309-0.548,0.465-0.961,0.465c-0.411,0-0.732-0.156-0.961-0.465c-0.175-0.229-0.258-0.587-0.258-1.071V9.887
		c0-0.487,0.083-0.842,0.258-1.072C14.079,8.505,14.4,8.349,14.812,8.349z M11.011,8.549c-0.192-0.566-0.394-1.136-0.586-1.702
		h0.964l0.647,2.399l0.625-2.399h0.924l-1.101,3.634v2.474H11.57v-2.474C11.487,10.043,11.305,9.4,11.011,8.549z M17.541,12.075
		c0.018,0.128,0.081,0.192,0.192,0.192c0.165,0,0.34-0.127,0.521-0.386V8.404h0.824v4.551h-0.824v-0.496
		c-0.328,0.376-0.642,0.559-0.942,0.559c-0.265,0-0.449-0.107-0.531-0.337c-0.046-0.139-0.072-0.356-0.072-0.677v-3.6h0.821v3.35
		C17.53,11.948,17.53,12.048,17.541,12.075z"/>
</g>
</svg>
